<svg xmlns="http://www.w3.org/2000/svg" version="1.1" xmlns:xlink="http://www.w3.org/1999/xlink" xmlns:svgjs="http://svgjs.com/svgjs" width="1024" height="1024"><svg width="1024" height="1024" viewBox="0 0 1024 1024" fill="none" xmlns="http://www.w3.org/2000/svg">
<path fill-rule="evenodd" clip-rule="evenodd" d="M495 620.5L501 623.5C511.5 613 519 602.5 525 592C604.5 454 682.5 320.5 763.5 185.5C770.98 172.842 792.583 138.999 818.829 102.084C733.321 37.9773 627.096 1.90735e-06 512 1.90735e-06C474.362 1.90735e-06 437.672 4.06133 402.345 11.7696C402.202 12.6647 402.06 13.5611 401.917 14.4585C400.069 26.1026 398.195 37.9153 394.5 49C381.956 88.2694 369.015 127.142 356.11 165.907C333.523 233.754 311.046 301.269 291 370C284.514 392.161 278.417 414.323 272.359 436.343C261.605 475.433 250.973 514.08 238.5 551.5C238.5 553.257 237.985 555.015 237.559 556.471C237.257 557.5 237 558.379 237 559L235.5 577C235.5 578.5 235.5 581.5 234 584.5C236.308 584.5 237.432 584.5 238.384 584.905C239.289 585.289 240.039 586.039 241.5 587.5C244.331 581.131 247.829 575.43 251.207 569.924C254.99 563.759 258.623 557.839 261 551.5C321 422.5 379.5 298 451.5 175C471 142 492 110.5 516 77.4999C535.5 52 561 42.9999 579 52C607.5 65.4999 604.5 92.4999 600 116.5C593.128 158.875 583.633 200.376 574.186 241.67C571.26 254.46 568.338 267.23 565.5 280C543 385 519 493 495 598V608.5C495 613 495 616 493.5 620.5H495ZM229.3 85.0554C91.1073 176.743 0 333.732 0 512C0 628.806 39.1145 736.477 104.96 822.628C108.584 803.888 112.635 785.049 117 766C162 566.5 217.5 370 277.5 178C282 167.5 285 157 283.5 142C281.756 143.744 279.562 145.262 277.441 146.73C274.088 149.05 270.919 151.244 270 154C260.807 166.87 253.868 181.431 247.11 195.61C242.841 204.566 238.646 213.37 234 221.5C232.5 224 231.167 226.333 229.833 228.667C227.167 233.333 224.5 238 220.5 244C208.5 260.5 196.5 266.5 180 259C166.5 253 157.5 233.5 165 215.5C163.727 205.312 166.778 199.449 171.4 190.567C172.222 188.987 173.094 187.312 174 185.5C191.012 151.476 209.258 117.761 229.3 85.0554ZM186.512 907.242C203.903 860.144 221.373 813.705 240 769C310.5 598 385.5 436 471 277C474.107 270.786 478.421 264.974 482.9 258.94C487.07 253.321 491.384 247.509 495 241C497.477 241 498.591 241.909 499.592 242.727C500.409 243.394 501.152 244 502.5 244C502.5 246.757 502.095 249.919 501.656 253.337C500.903 259.219 500.051 265.859 501 272.5C490.5 305.5 480 338.5 472.5 374.5C466.933 402.334 461.091 429.892 455.269 457.357C437.558 540.9 420.031 623.576 411 710.5C411.563 716.134 411.492 721.768 411.422 727.322C411.305 736.556 411.19 745.571 414 754C421.5 778 436.5 791.5 454.5 791.5C463.5 791.5 472.5 788.5 483 779.5C493.5 772 502.5 760 510 746.5C529.5 716.5 549 685 567 653.5C617 566.499 668.334 479.499 719.668 392.498C745.334 348.999 771 305.499 796.5 262C797.25 260.5 798 259.375 798.75 258.25C799.5 257.125 800.25 256 801 254.5L811.5 241C812.25 239.5 813 238.375 813.75 237.25C814.5 236.125 815.25 235 816 233.5C820.5 233.5 823.5 236.5 823.5 236.5C822 247 817.5 259 814.5 265C801.27 304.691 787.349 342.311 773.674 379.264C767.194 396.776 760.77 414.138 754.5 431.5C696 598 645 766 625.5 938.5C622.484 962.629 621.742 987.517 621.75 1012.21C586.394 1019.93 549.672 1024 512 1024C388.377 1024 274.987 980.187 186.512 907.242ZM689.569 992.371C884.815 920.172 1024 732.34 1024 512C1024 394.48 984.406 286.208 917.831 199.796C895.459 253.694 873.209 308.326 852 364C786 536.5 729 710.5 699 895C694.172 927.829 691.831 960.658 689.575 992.286C689.573 992.314 689.571 992.342 689.569 992.371Z" fill="#0F1011"></path>
</svg><style>@media (prefers-color-scheme: light) { :root { filter: none; } }
@media (prefers-color-scheme: dark) { :root { filter: invert(100%); } }
</style></svg>